<svg xmlns="http://www.w3.org/2000/svg" width="239" height="22" fill="none" viewBox="0 0 239 23"><g fill="#000" clip-path="url(#a)"><path d="M0 11.573C0 4.68 4.088 1.133 10.752.592c2.546.115 4.663.601 5.891 1.173l.171 3.319h-.43c-2.06-1.971-3.917-2.432-5.833-2.432-3.716 0-6.378 2.744-6.378 8.008 0 5.265 2.517 8.636 6.976 8.636h2.26v-7.121l-3.46.286V10.46h7.693v.37c-.542 1.059-.742 1.46-.742 2.203v7.176c-.687.286-3.175 1.058-6.835 1.058C4.377 21.267 0 17.35 0 11.573M21.819 18.635V3.309c0-.571-.2-.913-.887-1.975V.963h11.783V3.25h-.37c-1.059-.43-1.575-.627-2.232-.627H25.48v7.235l5.346-.315v2.146l-5.346-.286v7.978l4.287-.141c1.575-.056 2.373-.286 3.29-.887l.4.17-.656 2.458H20.93v-.371c.688-1.058.888-1.4.888-1.971zM36.773 18.635V3.023c0-.516-.2-.827-.887-1.685V.967h3.49L49.67 15.123h.17V3.309c0-.571-.14-.913-.772-1.975V.963h3.66v.371c-.657 1.058-.742 1.4-.742 1.975v17.672H49.3c-.2-.43-.43-.828-.742-1.258L39.09 6.825h-.171v11.81c0 .571.141.913.772 1.971v.371h-3.69v-.37c.627-1.059.772-1.4.772-1.972M60.737 18.635V2.623h-3.319c-.657 0-1.228.315-1.971.657h-.371V.963h14.928V3.28h-.371c-.743-.342-1.315-.657-1.975-.657h-3.32v16.016c0 .571.201.913.888 1.97v.372H59.85v-.371c.687-1.058.887-1.4.887-1.971zM73.405 18.635V3.309c0-.571-.2-.913-.887-1.975V.963h5.431v.371c-.687 1.058-.887 1.4-.887 1.975v16.072l4.117-.141c1.715-.056 2.458-.286 3.319-.887l.401.17-.657 2.458H72.518v-.371c.686-1.058.887-1.4.887-1.971zM88.103 18.635V3.309c0-.571-.2-.913-.888-1.975V.963H99V3.25h-.371c-1.058-.43-1.574-.627-2.231-.627h-4.634v7.235l5.346-.315v2.146l-5.346-.286v7.978l4.288-.141c1.574-.056 2.373-.286 3.29-.887l.4.17-.657 2.458H87.215v-.371c.687-1.058.888-1.4.888-1.971zM110.263 18.635V3.309c0-.571-.2-.913-.887-1.975V.963h4.147l6.404 15.33h.171l6.694-15.33h4.176v.371c-.687 1.058-.887 1.4-.887 1.975v15.33c0 .571.2.913.887 1.97v.372h-5.32v-.371c.687-1.058.887-1.4.887-1.971V7.055h-.17l-6.148 13.926h-1.6l-6.033-13.926h-.171V18.64c0 .571.141.913.772 1.97v.372h-3.69v-.371c.627-1.058.772-1.4.772-1.971zM140.777 21.323c-4.348-1.4-6.779-5.376-6.779-10.065 0-6.493 4.146-10.781 10.981-10.781.973 0 1.946.055 2.918.2 3.832 1.144 6.664 5.12 6.664 9.809 0 6.693-3.89 11.037-10.837 11.037-.972 0-2.06-.056-2.944-.2zm4.202-1.66c4.002 0 5.491-3.43 5.491-7.462 0-5.09-2.001-9.894-6.89-9.894-4.318 0-5.491 3.946-5.491 8.208 0 4.92 2.372 9.152 6.89 9.152zM158.389 18.635V3.023c0-.516-.2-.827-.887-1.685V.967h3.49l10.295 14.156h.17V3.309c0-.571-.141-.913-.772-1.975V.963h3.661v.371c-.657 1.058-.743 1.4-.743 1.975v17.672h-2.688c-.2-.43-.43-.828-.742-1.258l-9.467-12.898h-.171v11.81c0 .571.141.913.772 1.971v.371h-3.69v-.37c.627-1.059.772-1.4.772-1.972M177.776 20.58l-.427-3.63h.486c1.174 1.488 2.859 2.631 4.689 2.631s3.175-1.173 3.175-2.944c0-1.228-.888-2.457-3.861-4.488-2.688-1.83-4.348-3.404-4.348-6.007 0-3.63 2.833-5.49 6.72-5.49 1.143 0 3.23.34 4.032.656l.2 2.974h-.456c-.628-.913-1.975-1.8-4.032-1.8-1.886 0-3.145 1.028-3.145 2.546 0 1.519 1.199 2.774 3.717 4.574 3.489 2.487 4.573 3.89 4.573 6.293 0 3.861-3.345 5.405-6.89 5.405-1.314 0-3.23-.315-4.433-.716zM196.565 18.635V2.623h-3.315c-.657 0-1.229.315-1.972.657h-.371V.963h14.928V3.28h-.371c-.742-.342-1.314-.657-1.971-.657h-3.319v16.016c0 .571.2.913.887 1.97v.372h-5.376v-.371c.687-1.058.888-1.4.888-1.971zM209.233 18.635V3.309c0-.571-.201-.913-.888-1.975V.963h11.784V3.25h-.371c-1.058-.43-1.574-.627-2.232-.627h-4.633v7.235l5.346-.315v2.146l-5.346-.286v7.978l4.288-.141c1.574-.056 2.372-.286 3.289-.887l.401.17-.657 2.458h-11.869v-.371c.687-1.058.888-1.4.888-1.971zM239 20.61v.371h-4.489c-.059-.341-.315-.943-.571-1.43l-4.147-7.461-1.972-.056v6.605c0 .571.201.913.888 1.97v.372h-5.32v-.371c.686-1.058.887-1.4.887-1.971V3.309c0-.571-.201-.913-.887-1.975V.963h7.893c2.888 0 5.832 2.261 5.832 5.721 0 2.402-1.288 3.831-3.631 5.235l4.088 7.236A3.9 3.9 0 0 0 239 20.614zm-9.122-10.154c1.916-.056 3.631-1.288 3.631-3.831s-1.459-3.917-3.69-3.976l-2.001-.056v7.922l2.06-.055z"/></g><defs><clipPath id="a"><path fill="#fff" d="M0 .477h239v23H0z"/></clipPath></defs></svg>